{
    "asset" : {
        "generator" : "Khronos glTF Blender I/O v1.2.75",
        "version" : "2.0"
    },
    "scene" : 0,
    "scenes" : [
        {
            "name" : "Scene",
            "nodes" : [
                6
            ]
        }
    ],
    "nodes" : [
        {
            "mesh" : 0,
            "name" : "body.004",
            "rotation" : [
                2.6692543286799264e-08,
                -2.6692543286799264e-08,
                -0.7071068286895752,
                0.7071068286895752
            ],
            "translation" : [
                -1.2466351985931396,
                -0.6638932228088379,
                -0.41863682866096497
            ]
        },
        {
            "children" : [
                0
            ],
            "name" : "Bone.002",
            "rotation" : [
                -2.6692543286799264e-08,
                2.6692543286799264e-08,
                0.7071068286895752,
                0.7071068286895752
            ],
            "translation" : [
                -0.6638932228088379,
                1.2466351985931396,
                0.4186367392539978
            ]
        },
        {
            "mesh" : 1,
            "name" : "body.003",
            "rotation" : [
                2.6692543286799264e-08,
                -2.6692543286799264e-08,
                -0.7071068286895752,
                0.7071068286895752
            ],
            "translation" : [
                -1.0115784406661987,
                -0.6220956444740295,
                0.4925505816936493
            ]
        },
        {
            "children" : [
                2
            ],
            "name" : "Bone.003",
            "rotation" : [
                -2.6692543286799264e-08,
                2.6692543286799264e-08,
                0.7071068286895752,
                0.7071068286895752
            ],
            "translation" : [
                -0.6220956444740295,
                1.0115784406661987,
                -0.49255067110061646
            ]
        },
        {
            "mesh" : 2,
            "name" : "body.002",
            "rotation" : [
                0,
                0,
                0,
                1
            ],
            "translation" : [
                0,
                0,
                0
            ]
        },
        {
            "children" : [
                1,
                3,
                4
            ],
            "name" : "Bone"
        },
        {
            "children" : [
                5
            ],
            "name" : "Armature"
        }
    ],
    "animations" : [
        {
            "channels" : [
                {
                    "sampler" : 0,
                    "target" : {
                        "node" : 5,
                        "path" : "translation"
                    }
                },
                {
                    "sampler" : 1,
                    "target" : {
                        "node" : 5,
                        "path" : "rotation"
                    }
                },
                {
                    "sampler" : 2,
                    "target" : {
                        "node" : 5,
                        "path" : "scale"
                    }
                },
                {
                    "sampler" : 3,
                    "target" : {
                        "node" : 1,
                        "path" : "translation"
                    }
                },
                {
                    "sampler" : 4,
                    "target" : {
                        "node" : 1,
                        "path" : "rotation"
                    }
                },
                {
                    "sampler" : 5,
                    "target" : {
                        "node" : 1,
                        "path" : "scale"
                    }
                },
                {
                    "sampler" : 6,
                    "target" : {
                        "node" : 3,
                        "path" : "translation"
                    }
                },
                {
                    "sampler" : 7,
                    "target" : {
                        "node" : 3,
                        "path" : "rotation"
                    }
                },
                {
                    "sampler" : 8,
                    "target" : {
                        "node" : 3,
                        "path" : "scale"
                    }
                }
            ],
            "name" : "Boing",
            "samplers" : [
                {
                    "input" : 12,
                    "interpolation" : "LINEAR",
                    "output" : 13
                },
                {
                    "input" : 12,
                    "interpolation" : "LINEAR",
                    "output" : 14
                },
                {
                    "input" : 12,
                    "interpolation" : "LINEAR",
                    "output" : 15
                },
                {
                    "input" : 12,
                    "interpolation" : "LINEAR",
                    "output" : 16
                },
                {
                    "input" : 12,
                    "interpolation" : "LINEAR",
                    "output" : 17
                },
                {
                    "input" : 12,
                    "interpolation" : "LINEAR",
                    "output" : 18
                },
                {
                    "input" : 12,
                    "interpolation" : "LINEAR",
                    "output" : 19
                },
                {
                    "input" : 12,
                    "interpolation" : "LINEAR",
                    "output" : 20
                },
                {
                    "input" : 12,
                    "interpolation" : "LINEAR",
                    "output" : 21
                }
            ]
        },
        {
            "channels" : [
                {
                    "sampler" : 0,
                    "target" : {
                        "node" : 5,
                        "path" : "translation"
                    }
                },
                {
                    "sampler" : 1,
                    "target" : {
                        "node" : 5,
                        "path" : "rotation"
                    }
                },
                {
                    "sampler" : 2,
                    "target" : {
                        "node" : 5,
                        "path" : "scale"
                    }
                },
                {
                    "sampler" : 3,
                    "target" : {
                        "node" : 1,
                        "path" : "translation"
                    }
                },
                {
                    "sampler" : 4,
                    "target" : {
                        "node" : 1,
                        "path" : "rotation"
                    }
                },
                {
                    "sampler" : 5,
                    "target" : {
                        "node" : 1,
                        "path" : "scale"
                    }
                },
                {
                    "sampler" : 6,
                    "target" : {
                        "node" : 3,
                        "path" : "translation"
                    }
                },
                {
                    "sampler" : 7,
                    "target" : {
                        "node" : 3,
                        "path" : "rotation"
                    }
                },
                {
                    "sampler" : 8,
                    "target" : {
                        "node" : 3,
                        "path" : "scale"
                    }
                }
            ],
            "name" : "Idle",
            "samplers" : [
                {
                    "input" : 12,
                    "interpolation" : "LINEAR",
                    "output" : 22
                },
                {
                    "input" : 12,
                    "interpolation" : "LINEAR",
                    "output" : 23
                },
                {
                    "input" : 12,
                    "interpolation" : "LINEAR",
                    "output" : 24
                },
                {
                    "input" : 12,
                    "interpolation" : "LINEAR",
                    "output" : 25
                },
                {
                    "input" : 12,
                    "interpolation" : "LINEAR",
                    "output" : 26
                },
                {
                    "input" : 12,
                    "interpolation" : "LINEAR",
                    "output" : 27
                },
                {
                    "input" : 12,
                    "interpolation" : "LINEAR",
                    "output" : 28
                },
                {
                    "input" : 12,
                    "interpolation" : "LINEAR",
                    "output" : 29
                },
                {
                    "input" : 12,
                    "interpolation" : "LINEAR",
                    "output" : 30
                }
            ]
        }
    ],
    "materials" : [
        {
            "doubleSided" : true,
            "name" : "eye_mat",
            "pbrMetallicRoughness" : {}
        },
        {
            "doubleSided" : true,
            "name" : "body_mat",
            "pbrMetallicRoughness" : {}
        }
    ],
    "meshes" : [
        {
            "name" : "Cylinder.007",
            "primitives" : [
                {
                    "attributes" : {
                        "POSITION" : 0,
                        "NORMAL" : 1,
                        "TEXCOORD_0" : 2
                    },
                    "indices" : 3,
                    "material" : 0
                }
            ]
        },
        {
            "name" : "Cylinder.006",
            "primitives" : [
                {
                    "attributes" : {
                        "POSITION" : 4,
                        "NORMAL" : 5,
                        "TEXCOORD_0" : 6
                    },
                    "indices" : 7,
                    "material" : 0
                }
            ]
        },
        {
            "name" : "Cylinder.005",
            "primitives" : [
                {
                    "attributes" : {
                        "POSITION" : 8,
                        "NORMAL" : 9,
                        "TEXCOORD_0" : 10
                    },
                    "indices" : 11,
                    "material" : 1
                }
            ]
        }
    ],
    "accessors" : [
        {
            "bufferView" : 0,
            "componentType" : 5126,
            "count" : 350,
            "max" : [
                -0.40542376041412354,
                1.479473352432251,
                0.6405553817749023
            ],
            "min" : [
                -0.9015588164329529,
                1.0278855562210083,
                0.14442038536071777
            ],
            "type" : "VEC3"
        },
        {
            "bufferView" : 1,
            "componentType" : 5126,
            "count" : 350,
            "type" : "VEC3"
        },
        {
            "bufferView" : 2,
            "componentType" : 5126,
            "count" : 350,
            "type" : "VEC2"
        },
        {
            "bufferView" : 3,
            "componentType" : 5123,
            "count" : 1584,
            "type" : "SCALAR"
        },
        {
            "bufferView" : 4,
            "componentType" : 5126,
            "count" : 349,
            "max" : [
                -0.37636417150497437,
                1.3150005340576172,
                -0.2619447708129883
            ],
            "min" : [
                -0.8724992275238037,
                0.8188652992248535,
                -0.7580798268318176
            ],
            "type" : "VEC3"
        },
        {
            "bufferView" : 5,
            "componentType" : 5126,
            "count" : 349,
            "type" : "VEC3"
        },
        {
            "bufferView" : 6,
            "componentType" : 5126,
            "count" : 349,
            "type" : "VEC2"
        },
        {
            "bufferView" : 7,
            "componentType" : 5123,
            "count" : 1584,
            "type" : "SCALAR"
        },
        {
            "bufferView" : 8,
            "componentType" : 5126,
            "count" : 120,
            "max" : [
                0.6916866898536682,
                1.595733404159546,
                0.9921620488166809
            ],
            "min" : [
                -0.9824903011322021,
                -0.02095252275466919,
                -0.9758245348930359
            ],
            "type" : "VEC3"
        },
        {
            "bufferView" : 9,
            "componentType" : 5126,
            "count" : 120,
            "type" : "VEC3"
        },
        {
            "bufferView" : 10,
            "componentType" : 5126,
            "count" : 120,
            "type" : "VEC2"
        },
        {
            "bufferView" : 11,
            "componentType" : 5123,
            "count" : 132,
            "type" : "SCALAR"
        },
        {
            "bufferView" : 12,
            "componentType" : 5126,
            "count" : 61,
            "max" : [
                2.5
            ],
            "min" : [
                0
            ],
            "type" : "SCALAR"
        },
        {
            "bufferView" : 13,
            "componentType" : 5126,
            "count" : 61,
            "type" : "VEC3"
        },
        {
            "bufferView" : 14,
            "componentType" : 5126,
            "count" : 61,
            "type" : "VEC4"
        },
        {
            "bufferView" : 15,
            "componentType" : 5126,
            "count" : 61,
            "type" : "VEC3"
        },
        {
            "bufferView" : 16,
            "componentType" : 5126,
            "count" : 61,
            "type" : "VEC3"
        },
        {
            "bufferView" : 17,
            "componentType" : 5126,
            "count" : 61,
            "type" : "VEC4"
        },
        {
            "bufferView" : 18,
            "componentType" : 5126,
            "count" : 61,
            "type" : "VEC3"
        },
        {
            "bufferView" : 19,
            "componentType" : 5126,
            "count" : 61,
            "type" : "VEC3"
        },
        {
            "bufferView" : 20,
            "componentType" : 5126,
            "count" : 61,
            "type" : "VEC4"
        },
        {
            "bufferView" : 21,
            "componentType" : 5126,
            "count" : 61,
            "type" : "VEC3"
        },
        {
            "bufferView" : 22,
            "componentType" : 5126,
            "count" : 61,
            "type" : "VEC3"
        },
        {
            "bufferView" : 23,
            "componentType" : 5126,
            "count" : 61,
            "type" : "VEC4"
        },
        {
            "bufferView" : 24,
            "componentType" : 5126,
            "count" : 61,
            "type" : "VEC3"
        },
        {
            "bufferView" : 25,
            "componentType" : 5126,
            "count" : 61,
            "type" : "VEC3"
        },
        {
            "bufferView" : 26,
            "componentType" : 5126,
            "count" : 61,
            "type" : "VEC4"
        },
        {
            "bufferView" : 27,
            "componentType" : 5126,
            "count" : 61,
            "type" : "VEC3"
        },
        {
            "bufferView" : 28,
            "componentType" : 5126,
            "count" : 61,
            "type" : "VEC3"
        },
        {
            "bufferView" : 29,
            "componentType" : 5126,
            "count" : 61,
            "type" : "VEC4"
        },
        {
            "bufferView" : 30,
            "componentType" : 5126,
            "count" : 61,
            "type" : "VEC3"
        }
    ],
    "bufferViews" : [
        {
            "buffer" : 0,
            "byteLength" : 4200,
            "byteOffset" : 0
        },
        {
            "buffer" : 0,
            "byteLength" : 4200,
            "byteOffset" : 4200
        },
        {
            "buffer" : 0,
            "byteLength" : 2800,
            "byteOffset" : 8400
        },
        {
            "buffer" : 0,
            "byteLength" : 3168,
            "byteOffset" : 11200
        },
        {
            "buffer" : 0,
            "byteLength" : 4188,
            "byteOffset" : 14368
        },
        {
            "buffer" : 0,
            "byteLength" : 4188,
            "byteOffset" : 18556
        },
        {
            "buffer" : 0,
            "byteLength" : 2792,
            "byteOffset" : 22744
        },
        {
            "buffer" : 0,
            "byteLength" : 3168,
            "byteOffset" : 25536
        },
        {
            "buffer" : 0,
            "byteLength" : 1440,
            "byteOffset" : 28704
        },
        {
            "buffer" : 0,
            "byteLength" : 1440,
            "byteOffset" : 30144
        },
        {
            "buffer" : 0,
            "byteLength" : 960,
            "byteOffset" : 31584
        },
        {
            "buffer" : 0,
            "byteLength" : 264,
            "byteOffset" : 32544
        },
        {
            "buffer" : 0,
            "byteLength" : 244,
            "byteOffset" : 32808
        },
        {
            "buffer" : 0,
            "byteLength" : 732,
            "byteOffset" : 33052
        },
        {
            "buffer" : 0,
            "byteLength" : 976,
            "byteOffset" : 33784
        },
        {
            "buffer" : 0,
            "byteLength" : 732,
            "byteOffset" : 34760
        },
        {
            "buffer" : 0,
            "byteLength" : 732,
            "byteOffset" : 35492
        },
        {
            "buffer" : 0,
            "byteLength" : 976,
            "byteOffset" : 36224
        },
        {
            "buffer" : 0,
            "byteLength" : 732,
            "byteOffset" : 37200
        },
        {
            "buffer" : 0,
            "byteLength" : 732,
            "byteOffset" : 37932
        },
        {
            "buffer" : 0,
            "byteLength" : 976,
            "byteOffset" : 38664
        },
        {
            "buffer" : 0,
            "byteLength" : 732,
            "byteOffset" : 39640
        },
        {
            "buffer" : 0,
            "byteLength" : 732,
            "byteOffset" : 40372
        },
        {
            "buffer" : 0,
            "byteLength" : 976,
            "byteOffset" : 41104
        },
        {
            "buffer" : 0,
            "byteLength" : 732,
            "byteOffset" : 42080
        },
        {
            "buffer" : 0,
            "byteLength" : 732,
            "byteOffset" : 42812
        },
        {
            "buffer" : 0,
            "byteLength" : 976,
            "byteOffset" : 43544
        },
        {
            "buffer" : 0,
            "byteLength" : 732,
            "byteOffset" : 44520
        },
        {
            "buffer" : 0,
            "byteLength" : 732,
            "byteOffset" : 45252
        },
        {
            "buffer" : 0,
            "byteLength" : 976,
            "byteOffset" : 45984
        },
        {
            "buffer" : 0,
            "byteLength" : 732,
            "byteOffset" : 46960
        }
    ],
    "buffers" : [
        {
            "byteLength" : 47692,
            "uri" : "data:application/octet-stream;base64,"
        }
    ]
}
