{
    "asset" : {
        "generator" : "Khronos glTF Blender I/O v1.2.75",
        "version" : "2.0"
    },
    "scene" : 0,
    "scenes" : [
        {
            "name" : "Scene",
            "nodes" : [
                0
            ]
        }
    ],
    "nodes" : [
        {
            "mesh" : 0,
            "name" : "PolyMesh3D3"
        }
    ],
    "materials" : [
        {
            "doubleSided" : true,
            "emissiveFactor" : [
                0,
                0,
                0
            ],
            "name" : "PolyMesh3D3",
            "pbrMetallicRoughness" : {
                "baseColorFactor" : [
                    0.5,
                    0.5,
                    0.5,
                    1
                ],
                "metallicFactor" : 1,
                "roughnessFactor" : 1
            }
        }
    ],
    "meshes" : [
        {
            "name" : "PolyMesh3D3",
            "primitives" : [
                {
                    "attributes" : {
                        "POSITION" : 0,
                        "NORMAL" : 1
                    },
                    "indices" : 2,
                    "material" : 0
                }
            ]
        }
    ],
    "accessors" : [
        {
            "bufferView" : 0,
            "componentType" : 5126,
            "count" : 4872,
            "max" : [
                3.3998565673828125,
                4.462373733520508,
                2.4255452156066895
            ],
            "min" : [
                -3.3456873893737793,
                -0.4116532802581787,
                -2.0242905616760254
            ],
            "type" : "VEC3"
        },
        {
            "bufferView" : 1,
            "componentType" : 5126,
            "count" : 4872,
            "type" : "VEC3"
        },
        {
            "bufferView" : 2,
            "componentType" : 5123,
            "count" : 27108,
            "type" : "SCALAR"
        }
    ],
    "bufferViews" : [
        {
            "buffer" : 0,
            "byteLength" : 58464,
            "byteOffset" : 0
        },
        {
            "buffer" : 0,
            "byteLength" : 58464,
            "byteOffset" : 58464
        },
        {
            "buffer" : 0,
            "byteLength" : 54216,
            "byteOffset" : 116928
        }
    ],
    "buffers" : [
        {
            "byteLength" : 171144,
            "uri" : "data:application/octet-stream;base64,"
        }
    ]
}
