{
    "asset" : {
        "generator" : "Khronos glTF Blender I/O v1.2.75",
        "version" : "2.0"
    },
    "scene" : 0,
    "scenes" : [
        {
            "name" : "Scene",
            "nodes" : [
                0
            ]
        }
    ],
    "nodes" : [
        {
            "mesh" : 0,
            "name" : "PolyMesh3D1_1"
        }
    ],
    "materials" : [
        {
            "doubleSided" : true,
            "emissiveFactor" : [
                0,
                0,
                0
            ],
            "name" : "PolyMesh3D1_1.001",
            "pbrMetallicRoughness" : {
                "baseColorFactor" : [
                    0.5,
                    0.5,
                    0.5,
                    1
                ],
                "metallicFactor" : 1,
                "roughnessFactor" : 1
            }
        }
    ],
    "meshes" : [
        {
            "name" : "PolyMesh3D1_1.001",
            "primitives" : [
                {
                    "attributes" : {
                        "POSITION" : 0,
                        "NORMAL" : 1
                    },
                    "indices" : 2,
                    "material" : 0
                }
            ]
        }
    ],
    "accessors" : [
        {
            "bufferView" : 0,
            "componentType" : 5126,
            "count" : 6334,
            "max" : [
                2.9117374420166016,
                3.916374683380127,
                1.5878543853759766
            ],
            "min" : [
                -2.8955368995666504,
                -0.24930405616760254,
                -1.5378551483154297
            ],
            "type" : "VEC3"
        },
        {
            "bufferView" : 1,
            "componentType" : 5126,
            "count" : 6334,
            "type" : "VEC3"
        },
        {
            "bufferView" : 2,
            "componentType" : 5123,
            "count" : 35424,
            "type" : "SCALAR"
        }
    ],
    "bufferViews" : [
        {
            "buffer" : 0,
            "byteLength" : 76008,
            "byteOffset" : 0
        },
        {
            "buffer" : 0,
            "byteLength" : 76008,
            "byteOffset" : 76008
        },
        {
            "buffer" : 0,
            "byteLength" : 70848,
            "byteOffset" : 152016
        }
    ],
    "buffers" : [
        {
            "byteLength" : 222864,
            "uri" : "data:application/octet-stream;base64,"
        }
    ]
}
