{
    "asset" : {
        "generator" : "Khronos glTF Blender I/O v1.2.75",
        "version" : "2.0"
    },
    "scene" : 0,
    "scenes" : [
        {
            "name" : "Scene",
            "nodes" : [
                0,
                1
            ]
        }
    ],
    "nodes" : [
        {
            "mesh" : 0,
            "name" : "Root___Copy___Merged"
        },
        {
            "mesh" : 1,
            "name" : "PolyMesh3D1"
        }
    ],
    "materials" : [
        {
            "doubleSided" : true,
            "emissiveFactor" : [
                0,
                0,
                0
            ],
            "name" : "Root___Copy___Merged",
            "pbrMetallicRoughness" : {
                "baseColorFactor" : [
                    0.5,
                    0.5,
                    0.5,
                    1
                ],
                "metallicFactor" : 1,
                "roughnessFactor" : 1
            }
        },
        {
            "doubleSided" : true,
            "emissiveFactor" : [
                0,
                0,
                0
            ],
            "name" : "PolyMesh3D1",
            "pbrMetallicRoughness" : {
                "baseColorFactor" : [
                    0.5,
                    0.5,
                    0.5,
                    1
                ],
                "metallicFactor" : 1,
                "roughnessFactor" : 1
            }
        }
    ],
    "meshes" : [
        {
            "name" : "Root___Copy___Merged",
            "primitives" : [
                {
                    "attributes" : {
                        "POSITION" : 0,
                        "NORMAL" : 1
                    },
                    "indices" : 2,
                    "material" : 0
                }
            ]
        },
        {
            "name" : "PolyMesh3D1",
            "primitives" : [
                {
                    "attributes" : {
                        "POSITION" : 3,
                        "NORMAL" : 4,
                        "TEXCOORD_0" : 5
                    },
                    "indices" : 6,
                    "material" : 1
                }
            ]
        }
    ],
    "accessors" : [
        {
            "bufferView" : 0,
            "componentType" : 5126,
            "count" : 1134,
            "max" : [
                6.222463607788086,
                4.840701103210449,
                9.687419891357422
            ],
            "min" : [
                -6.249839782714844,
                -0.05606140196323395,
                -8.733659744262695
            ],
            "type" : "VEC3"
        },
        {
            "bufferView" : 1,
            "componentType" : 5126,
            "count" : 1134,
            "type" : "VEC3"
        },
        {
            "bufferView" : 2,
            "componentType" : 5123,
            "count" : 3456,
            "type" : "SCALAR"
        },
        {
            "bufferView" : 3,
            "componentType" : 5126,
            "count" : 148,
            "max" : [
                1.9711123704910278,
                1.989689588546753,
                10.051154136657715
            ],
            "min" : [
                -1.5748366117477417,
                -0.11948644369840622,
                -9.681108474731445
            ],
            "type" : "VEC3"
        },
        {
            "bufferView" : 4,
            "componentType" : 5126,
            "count" : 148,
            "type" : "VEC3"
        },
        {
            "bufferView" : 5,
            "componentType" : 5126,
            "count" : 148,
            "type" : "VEC2"
        },
        {
            "bufferView" : 6,
            "componentType" : 5123,
            "count" : 432,
            "type" : "SCALAR"
        }
    ],
    "bufferViews" : [
        {
            "buffer" : 0,
            "byteLength" : 13608,
            "byteOffset" : 0
        },
        {
            "buffer" : 0,
            "byteLength" : 13608,
            "byteOffset" : 13608
        },
        {
            "buffer" : 0,
            "byteLength" : 6912,
            "byteOffset" : 27216
        },
        {
            "buffer" : 0,
            "byteLength" : 1776,
            "byteOffset" : 34128
        },
        {
            "buffer" : 0,
            "byteLength" : 1776,
            "byteOffset" : 35904
        },
        {
            "buffer" : 0,
            "byteLength" : 1184,
            "byteOffset" : 37680
        },
        {
            "buffer" : 0,
            "byteLength" : 864,
            "byteOffset" : 38864
        }
    ],
    "buffers" : [
        {
            "byteLength" : 39728,
            "uri" : "data:application/octet-stream;base64,"
        }
    ]
}
