{
    "asset" : {
        "generator" : "Khronos glTF Blender I/O v1.2.75",
        "version" : "2.0"
    },
    "scene" : 0,
    "scenes" : [
        {
            "name" : "Scene",
            "nodes" : [
                0
            ]
        }
    ],
    "nodes" : [
        {
            "mesh" : 0,
            "name" : "Root___Copy___Merged1"
        }
    ],
    "materials" : [
        {
            "doubleSided" : true,
            "emissiveFactor" : [
                0,
                0,
                0
            ],
            "name" : "Root___Copy___Merged1.001",
            "pbrMetallicRoughness" : {
                "baseColorFactor" : [
                    0.5,
                    0.5,
                    0.5,
                    1
                ],
                "metallicFactor" : 1,
                "roughnessFactor" : 1
            }
        }
    ],
    "meshes" : [
        {
            "name" : "Root___Copy___Merged1.001",
            "primitives" : [
                {
                    "attributes" : {
                        "POSITION" : 0,
                        "NORMAL" : 1
                    },
                    "indices" : 2,
                    "material" : 0
                }
            ]
        }
    ],
    "accessors" : [
        {
            "bufferView" : 0,
            "componentType" : 5126,
            "count" : 2337,
            "max" : [
                6.376255512237549,
                5.002752304077148,
                10.046116828918457
            ],
            "min" : [
                -6.1117262840271,
                -0.43903765082359314,
                -9.792265892028809
            ],
            "type" : "VEC3"
        },
        {
            "bufferView" : 1,
            "componentType" : 5126,
            "count" : 2337,
            "type" : "VEC3"
        },
        {
            "bufferView" : 2,
            "componentType" : 5123,
            "count" : 7344,
            "type" : "SCALAR"
        }
    ],
    "bufferViews" : [
        {
            "buffer" : 0,
            "byteLength" : 28044,
            "byteOffset" : 0
        },
        {
            "buffer" : 0,
            "byteLength" : 28044,
            "byteOffset" : 28044
        },
        {
            "buffer" : 0,
            "byteLength" : 14688,
            "byteOffset" : 56088
        }
    ],
    "buffers" : [
        {
            "byteLength" : 70776,
            "uri" : "data:application/octet-stream;base64,"
        }
    ]
}
