{
    "asset" : {
        "generator" : "Khronos glTF Blender I/O v1.2.75",
        "version" : "2.0"
    },
    "scene" : 0,
    "scenes" : [
        {
            "name" : "Scene",
            "nodes" : [
                0,
                1
            ]
        }
    ],
    "nodes" : [
        {
            "mesh" : 0,
            "name" : "Root___Copy___Merged",
            "rotation" : [
                0,
                0.7071067690849304,
                0,
                0.7071068286895752
            ]
        },
        {
            "mesh" : 1,
            "name" : "PolyMesh3D1",
            "rotation" : [
                0,
                0.7071067690849304,
                0,
                0.7071068286895752
            ]
        }
    ],
    "materials" : [
        {
            "doubleSided" : true,
            "emissiveFactor" : [
                0,
                0,
                0
            ],
            "name" : "Root___Copy___Merged",
            "pbrMetallicRoughness" : {
                "baseColorFactor" : [
                    0.5,
                    0.5,
                    0.5,
                    1
                ],
                "metallicFactor" : 1,
                "roughnessFactor" : 1
            }
        },
        {
            "doubleSided" : true,
            "emissiveFactor" : [
                0,
                0,
                0
            ],
            "name" : "PolyMesh3D1",
            "pbrMetallicRoughness" : {
                "baseColorFactor" : [
                    0.5,
                    0.5,
                    0.5,
                    1
                ],
                "metallicFactor" : 1,
                "roughnessFactor" : 1
            }
        }
    ],
    "meshes" : [
        {
            "name" : "Root___Copy___Merged",
            "primitives" : [
                {
                    "attributes" : {
                        "POSITION" : 0,
                        "NORMAL" : 1
                    },
                    "indices" : 2,
                    "material" : 0
                }
            ]
        },
        {
            "name" : "PolyMesh3D1",
            "primitives" : [
                {
                    "attributes" : {
                        "POSITION" : 3,
                        "NORMAL" : 4,
                        "TEXCOORD_0" : 5
                    },
                    "indices" : 6,
                    "material" : 1
                }
            ]
        }
    ],
    "accessors" : [
        {
            "bufferView" : 0,
            "componentType" : 5126,
            "count" : 987,
            "max" : [
                7.607830047607422,
                4.097740173339844,
                5.333466053009033
            ],
            "min" : [
                -7.98594331741333,
                -0.047456979751586914,
                -5.224560737609863
            ],
            "type" : "VEC3"
        },
        {
            "bufferView" : 1,
            "componentType" : 5126,
            "count" : 987,
            "type" : "VEC3"
        },
        {
            "bufferView" : 2,
            "componentType" : 5123,
            "count" : 3456,
            "type" : "SCALAR"
        },
        {
            "bufferView" : 3,
            "componentType" : 5126,
            "count" : 148,
            "max" : [
                8.409862518310547,
                1.6843078136444092,
                1.7346224784851074
            ],
            "min" : [
                -8.293850898742676,
                -0.10114741325378418,
                -1.2670865058898926
            ],
            "type" : "VEC3"
        },
        {
            "bufferView" : 4,
            "componentType" : 5126,
            "count" : 148,
            "type" : "VEC3"
        },
        {
            "bufferView" : 5,
            "componentType" : 5126,
            "count" : 148,
            "type" : "VEC2"
        },
        {
            "bufferView" : 6,
            "componentType" : 5123,
            "count" : 432,
            "type" : "SCALAR"
        }
    ],
    "bufferViews" : [
        {
            "buffer" : 0,
            "byteLength" : 11844,
            "byteOffset" : 0
        },
        {
            "buffer" : 0,
            "byteLength" : 11844,
            "byteOffset" : 11844
        },
        {
            "buffer" : 0,
            "byteLength" : 6912,
            "byteOffset" : 23688
        },
        {
            "buffer" : 0,
            "byteLength" : 1776,
            "byteOffset" : 30600
        },
        {
            "buffer" : 0,
            "byteLength" : 1776,
            "byteOffset" : 32376
        },
        {
            "buffer" : 0,
            "byteLength" : 1184,
            "byteOffset" : 34152
        },
        {
            "buffer" : 0,
            "byteLength" : 864,
            "byteOffset" : 35336
        }
    ],
    "buffers" : [
        {
            "byteLength" : 36200,
            "uri" : "data:application/octet-stream;base64,"
        }
    ]
}
