{
    "asset" : {
        "generator" : "Khronos glTF Blender I/O v1.2.75",
        "version" : "2.0"
    },
    "scene" : 0,
    "scenes" : [
        {
            "name" : "Scene",
            "nodes" : [
                0,
                1
            ]
        }
    ],
    "nodes" : [
        {
            "mesh" : 0,
            "name" : "Root___Copy___Merged1"
        },
        {
            "mesh" : 1,
            "name" : "PolyMesh3D1"
        }
    ],
    "materials" : [
        {
            "doubleSided" : true,
            "emissiveFactor" : [
                0,
                0,
                0
            ],
            "name" : "Root___Copy___Merged1.002",
            "pbrMetallicRoughness" : {
                "baseColorFactor" : [
                    0.5,
                    0.5,
                    0.5,
                    1
                ],
                "metallicFactor" : 1,
                "roughnessFactor" : 1
            }
        },
        {
            "doubleSided" : true,
            "emissiveFactor" : [
                0,
                0,
                0
            ],
            "name" : "PolyMesh3D1.002",
            "pbrMetallicRoughness" : {
                "baseColorFactor" : [
                    0.5,
                    0.5,
                    0.5,
                    1
                ],
                "metallicFactor" : 1,
                "roughnessFactor" : 1
            }
        }
    ],
    "meshes" : [
        {
            "name" : "Root___Copy___Merged1.002",
            "primitives" : [
                {
                    "attributes" : {
                        "POSITION" : 0,
                        "NORMAL" : 1
                    },
                    "indices" : 2,
                    "material" : 0
                }
            ]
        },
        {
            "name" : "PolyMesh3D1.002",
            "primitives" : [
                {
                    "attributes" : {
                        "POSITION" : 3,
                        "NORMAL" : 4,
                        "TEXCOORD_0" : 5
                    },
                    "indices" : 6,
                    "material" : 1
                }
            ]
        }
    ],
    "accessors" : [
        {
            "bufferView" : 0,
            "componentType" : 5126,
            "count" : 1953,
            "max" : [
                6.99789571762085,
                4.034425735473633,
                9.676864624023438
            ],
            "min" : [
                -6.640293598175049,
                -0.1940121352672577,
                -9.725788116455078
            ],
            "type" : "VEC3"
        },
        {
            "bufferView" : 1,
            "componentType" : 5126,
            "count" : 1953,
            "type" : "VEC3"
        },
        {
            "bufferView" : 2,
            "componentType" : 5123,
            "count" : 6912,
            "type" : "SCALAR"
        },
        {
            "bufferView" : 3,
            "componentType" : 5126,
            "count" : 148,
            "max" : [
                2.2877309322357178,
                1.928695797920227,
                9.79736614227295
            ],
            "min" : [
                -1.2280499935150146,
                -0.16253672540187836,
                -9.767024993896484
            ],
            "type" : "VEC3"
        },
        {
            "bufferView" : 4,
            "componentType" : 5126,
            "count" : 148,
            "type" : "VEC3"
        },
        {
            "bufferView" : 5,
            "componentType" : 5126,
            "count" : 148,
            "type" : "VEC2"
        },
        {
            "bufferView" : 6,
            "componentType" : 5123,
            "count" : 432,
            "type" : "SCALAR"
        }
    ],
    "bufferViews" : [
        {
            "buffer" : 0,
            "byteLength" : 23436,
            "byteOffset" : 0
        },
        {
            "buffer" : 0,
            "byteLength" : 23436,
            "byteOffset" : 23436
        },
        {
            "buffer" : 0,
            "byteLength" : 13824,
            "byteOffset" : 46872
        },
        {
            "buffer" : 0,
            "byteLength" : 1776,
            "byteOffset" : 60696
        },
        {
            "buffer" : 0,
            "byteLength" : 1776,
            "byteOffset" : 62472
        },
        {
            "buffer" : 0,
            "byteLength" : 1184,
            "byteOffset" : 64248
        },
        {
            "buffer" : 0,
            "byteLength" : 864,
            "byteOffset" : 65432
        }
    ],
    "buffers" : [
        {
            "byteLength" : 66296,
            "uri" : "data:application/octet-stream;base64,"
        }
    ]
}
